<?xml version="1.0" encoding="utf-8"?>
<!-- Generator: Adobe Illustrator 26.4.1, SVG Export Plug-In . SVG Version: 6.00 Build 0)  -->
<svg version="1.1" id="Layer_1" xmlns="http://www.w3.org/2000/svg" xmlns:xlink="http://www.w3.org/1999/xlink" x="0px" y="0px"
	 viewBox="0 0 764.2 719.7" style="enable-background:new 0 0 764.2 719.7;" xml:space="preserve">
<path d="M266,719.5c-34,0.5-64.7-6.4-92.8-22.9c-29.9-17.6-49.7-43-56.4-77.4c-5.4-28,0.4-54.5,13.3-79.7
	c11.5-22.6,27.8-41.3,47.3-57.3c22.2-18.2,42.7-38.2,59.4-61.6c9.5-13.3,18-27.5,27.1-41.1c18.2-27.1,43.6-44.6,74.3-54.9
	c19.1-6.4,38.8-8.4,58.6-6.2c26.6,2.9,50.6,12.4,72.5,28.3c13.9,10.1,24.7,22.7,34.2,36.5c6,8.7,9.9,18.8,15.2,28
	c14.1,24.8,32.9,45.3,56.3,61.8c29.2,20.5,52.3,46.2,65.5,79.9c13.9,35.3,12.9,69.9-6.9,103c-12.2,20.4-29.9,35-51,45.6
	c-24.9,12.4-51.2,17.8-79,18.2c-27.7,0.4-54.2-4.7-80.3-13.3c-28.5-9.3-56.9-8.6-85.3,0.9C314.1,715.3,289.7,720,266,719.5z
	 M351.3,105.4c-0.8-7.8-1.8-15.5-3.3-23.2c-3.6-18.8-8.1-37.3-17.6-54.3C316.7,3.7,296-5,269.4,3c-19.2,5.8-35.3,17-50,30.2
	c-20.2,18.1-36.9,39.2-50,63c-9.6,17.4-17,35.7-20.4,55.3c-3.7,21.5-1.9,42.8,3.5,63.8c7.9,30.5,22.4,57,48.4,75.7
	c24.2,17.4,50.8,21.8,79,11.2c27.7-10.4,45.7-31.4,58.4-57.2c12.9-26.4,17.3-54.7,16.5-83.9C353.9,142.6,353.4,123.9,351.3,105.4z
	 M413.5,207c5.1,24.4,14.6,46.9,30.9,66.1c15.1,17.8,33.6,30.4,57.1,33.7c34.2,4.8,61.2-9.2,82.5-34.8c18.3-22,27.8-48,31.8-76.3
	c4.4-30.8-1.2-59.5-14.4-87.2c-12.6-26.4-29.5-49.7-50.6-70c-16.7-16.1-35-29.7-57.7-36.2c-20.5-5.9-41-0.4-53.8,17.7
	c-10.2,14.3-15.7,30.3-19.7,47c-7.4,30.9-8.7,62.6-9.7,94.2C409.3,176.7,410.4,191.9,413.5,207z M759,304.9
	c-5.8-24-14.6-46.7-31.1-65.6c-12.8-14.6-28.5-23.1-48.6-19c-13.4,2.8-24.3,10.6-34.2,19.7c-17.6,16.3-31,36-42.6,56.9
	c-14.2,25.6-27.3,51.6-30.4,81.5c-2.9,27.6,1,53.6,16.7,76.8c17,25.1,41.4,35.5,71.1,32.1c24.2-2.7,44.5-14.6,61.5-31.6
	c28.8-28.9,44.2-63.6,42.7-106.1C764.8,335.3,762.7,320,759,304.9z M180.5,447.5c16.5-32.2,16.5-65.7,5.1-99.1
	c-12.4-36.3-31.3-69.3-56.5-98.4c-10-11.5-21.5-21.4-36-27.1c-13-5.2-25.8-5-38.5,1.8c-15.4,8.2-25.1,21.6-32.9,36.4
	C6.8,289.4,0.1,319.8,0,351.8c-0.1,13.2,1,26.3,4.5,39c8.1,29.2,23.8,53.6,47.3,72.8c18.1,14.8,38.5,24.1,62.4,24.4
	C142.8,488.5,167.8,472.5,180.5,447.5z"/>
</svg>
